# xmcd
#
# Track frame offsets: 
#        150
#        24349
#        47575
#        73720
#        97156
#        131369
#        158533
#        188476
#        224693
#
# Disc length: 3511 seconds
#
# Revision: 1
# Processed by: cddbd v1.5.2PL0 Copyright (c) Steve Scherf et al.
# Submitted via: ExactAudioCopy v1.0b3
#
DISCID=750db509
DTITLE=Jonn Serrie - Lumina Nights
DYEAR=2002
DGENRE=New Age
TTITLE0=Lumina Nights
TTITLE1=Lovers in Motion
TTITLE2=Tidepools
TTITLE3=Autumn Leaves
TTITLE4=Starshower
TTITLE5=Evening Shade
TTITLE6=Deep Mystery
TTITLE7=Lumahai
TTITLE8=From Here to Eternity
EXTD=YEAR: 2002
EXTT0=
EXTT1=
EXTT2=
EXTT3=
EXTT4=
EXTT5=
EXTT6=
EXTT7=
EXTT8=
PLAYORDER=
